<?xml version="1.0" encoding="UTF-8"?>
<svg width="35px" height="37px" viewBox="0 0 35 37" version="1.1" xmlns="http://www.w3.org/2000/svg" xmlns:xlink="http://www.w3.org/1999/xlink">
    <!-- Generator: sketchtool 59 (101010) - https://sketch.com -->
    <title>D43BA3D5-9A43-4777-AFDE-92DA10AC535C</title>
    <desc>Created with sketchtool.</desc>
    <g id="Page-1" stroke="none" stroke-width="1" fill="none" fill-rule="evenodd">
        <g id="RealEstate---Leads" transform="translate(-24.000000, -121.000000)">
            <g id="Group-2">
                <g id="Leads-Icon" transform="translate(26.000000, 123.000000)">
                    <polyline id="Path" stroke="#C0D8DC" stroke-width="3" stroke-linecap="round" stroke-linejoin="round" points="15.9959449 30 3.85284564 30 3.85284564 11.7968643 0 11.7968643 15 0 30 11.7968643 26.4441388 11.7968643 26.4441388 16.5564102"></polyline>
                    <path d="M32.2861929,23.9409061 L26.4746516,23.9409061 L24.6787983,18.4390672 C24.4860795,17.8536443 23.5139205,17.8536443 23.3212017,18.4390672 L21.5253484,23.9409061 L15.7138071,23.9409061 C15.4040296,23.9409061 15.1299407,24.1398362 15.034295,24.4325476 C14.940077,24.7252591 15.0442879,25.0463892 15.2941085,25.2268472 L20.0035839,28.6328151 L18.3219343,34.0806586 C18.2319989,34.3733701 18.3390649,34.6902374 18.590313,34.8678536 C18.8401337,35.0454697 19.1770346,35.0426279 19.4268552,34.8621698 L24.0007138,31.5244066 L28.5745723,34.8621698 C28.7001964,34.9559512 28.8486612,35 28.9971261,35 C29.1427358,35 29.286918,34.9559512 29.409687,34.8678536 C29.6609351,34.6916583 29.7680011,34.3733701 29.6780657,34.0806586 L27.9964161,28.6328151 L32.7058915,25.2268472 C32.9557121,25.0463892 33.059923,24.7252591 32.965705,24.4325476 C32.8686318,24.1398362 32.5959704,23.9409061 32.2861929,23.9409061 Z M26.7054136,27.531165 C26.4621514,27.701212 26.358097,28.0018551 26.4466839,28.2807321 L27.6278416,32 L24.4176236,29.7227306 C24.2938833,29.6343062 24.1476447,29.5907742 24.0014061,29.5907742 C23.8551676,29.5907742 23.708929,29.6343062 23.5823764,29.7227306 L20.3721584,32 L21.5533161,28.2807321 C21.641903,28.0032154 21.5378486,27.701212 21.2945864,27.531165 L18,25.2158051 L22.0721819,25.2158051 C22.3773143,25.2158051 22.6472932,25.0253525 22.7415046,24.745115 L24,21 L25.2584954,24.745115 C25.354113,25.0253525 25.6226857,25.2158051 25.9278181,25.2158051 L30,25.2158051 L26.7054136,27.531165 Z" id="Shape" fill="#C0D8DC" fill-rule="nonzero"></path>
                </g>
            </g>
        </g>
    </g>
</svg>