<?xml version="1.0" encoding="UTF-8"?>
<svg width="33px" height="28px" viewBox="0 0 33 28" version="1.1" xmlns="http://www.w3.org/2000/svg" xmlns:xlink="http://www.w3.org/1999/xlink">
    <!-- Generator: sketchtool 59 (101010) - https://sketch.com -->
    <title>BB3BFCA2-698D-4995-9B98-9CC9484D07E8</title>
    <desc>Created with sketchtool.</desc>
    <g id="Page-1" stroke="none" stroke-width="1" fill="none" fill-rule="evenodd">
        <g id="RealEstate---Leads" transform="translate(-23.000000, -204.000000)" fill="#C0D8DC" fill-rule="nonzero">
            <g id="Group-2">
                <g id="Transaction-Icon" transform="translate(23.000000, 204.000000)">
                    <g id="Group">
                        <path d="M21.183871,0.430769231 L11.55,0.430769231 C7.23870968,0.430769231 3.67258065,3.98461538 3.67258065,8.4 L3.67258065,21.4846154 L2.28870968,20.0846154 C2.02258065,19.8153846 1.70322581,19.7076923 1.38387097,19.7076923 C1.06451613,19.7076923 0.74516129,19.8153846 0.479032258,20.0846154 C0.212903226,20.3538462 0.106451613,20.6769231 0.106451613,21 C0.106451613,21.3230769 0.266129032,21.6461538 0.479032258,21.9153846 L3.51290323,24.9846154 C3.88548387,25.3615385 4.41774194,25.5769231 4.95,25.5769231 C5.48225806,25.5769231 6.01451613,25.3615385 6.38709677,24.9846154 L9.42096774,21.9153846 C9.68709677,21.6461538 9.79354839,21.3230769 9.79354839,21 C9.79354839,20.6769231 9.63387097,20.3538462 9.42096774,20.0846154 C9.15483871,19.8153846 8.83548387,19.7076923 8.51612903,19.7076923 C8.19677419,19.7076923 7.87741935,19.8692308 7.61129032,20.0846154 L6.22741935,21.4846154 L6.22741935,8.4 C6.22741935,5.43846154 8.62258065,3.01538462 11.55,3.01538462 L21.2370968,3.01538462 C21.9290323,3.01538462 22.5145161,2.42307692 22.5145161,1.72307692 C22.5145161,1.02307692 21.9290323,0.430769231 21.183871,0.430769231 Z" id="Path"></path>
                        <path d="M29.3274194,6.51538462 L30.7112903,7.91538462 C31.1903226,8.4 32.0419355,8.4 32.5209677,7.91538462 C32.7870968,7.64615385 32.8935484,7.32307692 32.8935484,7 C32.8935484,6.67692308 32.733871,6.35384615 32.5209677,6.08461538 L29.4870968,3.01538462 C29.1145161,2.63846154 28.5822581,2.42307692 28.05,2.42307692 C27.5177419,2.42307692 26.9854839,2.63846154 26.6129032,3.01538462 L23.5790323,6.08461538 C23.3129032,6.35384615 23.2064516,6.67692308 23.2064516,7 C23.2064516,7.32307692 23.366129,7.64615385 23.5790323,7.91538462 C23.8451613,8.18461538 24.1645161,8.29230769 24.483871,8.29230769 C24.8032258,8.29230769 25.1225806,8.13076923 25.3887097,7.91538462 L26.7725806,6.51538462 L26.7725806,19.6 C26.7725806,22.5615385 24.3774194,24.9846154 21.45,24.9846154 L11.816129,24.9846154 C11.1241935,24.9846154 10.5387097,25.5769231 10.5387097,26.2769231 C10.5387097,26.9769231 11.1241935,27.5692308 11.816129,27.5692308 L21.5032258,27.5692308 C25.8145161,27.5692308 29.3806452,24.0153846 29.3806452,19.6 L29.3806452,6.51538462 L29.3274194,6.51538462 Z" id="Path"></path>
                        <path d="M18.6822581,21.4846154 C20.3854839,20.9461538 21.3435484,19.8692308 21.5564516,18.3076923 C21.8225806,16.4230769 21.2370968,15.0230769 19.8532258,14.1615385 C19.3741935,13.8384615 18.7887097,13.6230769 18.2564516,13.3538462 C17.9903226,13.2461538 17.7241935,13.0846154 17.4580645,12.9769231 C17.2983871,12.8692308 17.1387097,12.8153846 16.9258065,12.7076923 C16.4467742,12.4923077 16.0209677,12.2769231 15.5419355,12.0076923 C14.9032258,11.5769231 14.6370968,10.6615385 14.9564516,9.74615385 C15.2225806,8.99230769 15.7016129,8.66923077 16.6596774,8.66923077 C17.5645161,8.66923077 18.2032258,9.1 18.4693548,9.90769231 C18.5758065,10.1230769 18.5758065,10.3923077 18.6290323,10.6615385 L18.6290323,10.7153846 C18.6290323,10.8230769 18.6822581,10.9307692 18.6822581,10.9846154 L21.5032258,10.9846154 C21.6096774,10.1769231 21.3967742,9.20769231 20.9709677,8.50769231 C20.3322581,7.43076923 19.3741935,6.78461538 17.8306452,6.46153846 L17.6177419,6.40769231 L17.6177419,5.06153846 L16.0209677,5.06153846 L16.0209677,6.3 L15.8080645,6.35384615 C15.6483871,6.40769231 15.4887097,6.46153846 15.3290323,6.51538462 C14.85,6.67692308 14.4241935,6.78461538 14.0516129,7 C12.8274194,7.64615385 12.0290323,8.83076923 11.9225806,10.2846154 C11.816129,11.6846154 12.4016129,12.9769231 13.466129,13.7846154 C14.0516129,14.2153846 14.6903226,14.4846154 15.3290323,14.7538462 C15.5951613,14.8615385 15.9145161,15.0230769 16.1806452,15.1307692 C16.3403226,15.2384615 16.5,15.2923077 16.6596774,15.3461538 L16.766129,15.4 C17.1919355,15.5615385 17.5645161,15.7769231 17.883871,15.9923077 C18.5758065,16.4230769 18.8419355,17.3384615 18.5225806,18.2538462 C18.3096774,19.0076923 17.7241935,19.3846154 16.8193548,19.4384615 C16.6064516,19.4384615 16.3935484,19.4384615 16.1806452,19.4384615 C15.116129,19.3846154 14.4241935,18.6846154 14.2645161,17.5538462 C14.2645161,17.5 14.2645161,17.4461538 14.2645161,17.3384615 L14.2112903,17.0153846 L11.3903226,17.0153846 C11.1774194,19.4384615 12.5080645,20.9461538 15.5419355,21.6461538 L15.7548387,21.7 L15.7548387,22.8307692 L17.3516129,22.8307692 L17.3516129,21.7 L17.7774194,21.5923077 C18.15,21.6461538 18.416129,21.5923077 18.6822581,21.4846154 Z" id="Path"></path>
                    </g>
                </g>
            </g>
        </g>
    </g>
</svg>